<svg width="20" height="20" viewBox="0 0 34 34" fill="none" xmlns="http://www.w3.org/2000/svg">
<path fill-rule="evenodd" clip-rule="evenodd" d="M17 33.5C7.8873 33.5 0.5 26.1127 0.5 17C0.5 7.8873 7.8873 0.5 17 0.5C26.1127 0.5 33.5 7.8873 33.5 17C33.5 26.1127 26.1127 33.5 17 33.5ZM28.0992 24.687C29.6129 22.5055 30.5 19.8563 30.5 17C30.5 9.54416 24.4558 3.5 17 3.5C9.54416 3.5 3.5 9.54416 3.5 17C3.5 19.8563 4.38707 22.5055 5.90076 24.687C7.58893 22.4571 11.5559 21.5 17 21.5C22.4441 21.5 26.4111 22.4571 28.0992 24.687ZM25.947 27.1096C25.508 25.531 22.3541 24.5 17 24.5C11.6459 24.5 8.492 25.531 8.05298 27.1096C10.4349 29.2193 13.5679 30.5 17 30.5C20.4321 30.5 23.565 29.2193 25.947 27.1096ZM17 8C13.3686 8 11 10.6336 11 14C11 19.1411 13.6413 21.5 17 21.5C20.3271 21.5 23 19.2194 23 14.3C23 10.8824 20.6213 8 17 8ZM14 14C14 17.4039 15.2273 18.5 17 18.5C18.7666 18.5 20 17.4476 20 14.3C20 12.4256 18.8235 11 17 11C15.1006 11 14 12.2237 14 14Z" fill="currentColor"/>
</svg>
